<svg width="45" height="45" viewBox="0 0 45 45" fill="none" xmlns="http://www.w3.org/2000/svg">
<path d="M41.25 31.8788C41.2492 34.4429 40.3727 36.9299 38.7657 38.928C37.1587 40.9262 34.9175 42.3156 32.4131 42.8662L31.2169 39.2775C32.3123 39.0971 33.3541 38.6759 34.2671 38.0443C35.1801 37.4127 35.9417 36.5864 36.4969 35.625H31.875C30.8804 35.625 29.9266 35.2299 29.2234 34.5266C28.5201 33.8234 28.125 32.8696 28.125 31.875V24.375C28.125 23.3804 28.5201 22.4266 29.2234 21.7234C29.9266 21.0201 30.8804 20.625 31.875 20.625H37.3838C36.9262 17.0004 35.1617 13.6674 32.4214 11.2513C29.6811 8.83515 26.1533 7.50202 22.5 7.50202C18.8467 7.50202 15.3189 8.83515 12.5786 11.2513C9.83827 13.6674 8.07381 17.0004 7.61625 20.625H13.125C14.1196 20.625 15.0734 21.0201 15.7766 21.7234C16.4799 22.4266 16.875 23.3804 16.875 24.375V31.875C16.875 32.8696 16.4799 33.8234 15.7766 34.5266C15.0734 35.2299 14.1196 35.625 13.125 35.625H7.5C6.50544 35.625 5.55161 35.2299 4.84835 34.5266C4.14509 33.8234 3.75 32.8696 3.75 31.875V22.5C3.75 12.1444 12.1444 3.75 22.5 3.75C32.8556 3.75 41.25 12.1444 41.25 22.5V31.8788ZM37.5 31.875V24.375H31.875V31.875H37.5ZM7.5 24.375V31.875H13.125V24.375H7.5Z" fill="white"/>
</svg>
