<svg width="45" height="45" viewBox="0 0 45 45" fill="none" xmlns="http://www.w3.org/2000/svg">
<path d="M5.56169 17.7539C5.32454 17.7561 5.09105 17.6954 4.88493 17.5781C4.73374 17.4931 4.60102 17.3789 4.49453 17.242C4.38805 17.1051 4.30993 16.9483 4.26475 16.7809C4.21958 16.6134 4.20825 16.4387 4.23143 16.2668C4.25462 16.0949 4.31185 15.9294 4.39977 15.7799C6.09431 12.9516 11.25 6.3501 22.5 6.3501C27.3753 6.3501 31.6511 7.63066 35.2028 10.1549C38.126 12.2265 39.7643 14.5714 40.5448 15.7008C40.6438 15.8431 40.7133 16.0039 40.7492 16.1735C40.7852 16.3431 40.7868 16.5182 40.754 16.6885C40.7213 16.8587 40.6548 17.0207 40.5585 17.1649C40.4622 17.3091 40.338 17.4326 40.1932 17.528C39.8974 17.7236 39.5371 17.7962 39.1886 17.7306C38.8401 17.665 38.5309 17.4662 38.3264 17.1765C36.914 15.1453 32.6074 8.96484 22.5 8.96484C12.6342 8.96484 8.1738 14.6522 6.72097 17.0912C6.60423 17.2949 6.43523 17.4637 6.23143 17.5802C6.02763 17.6967 5.79642 17.7567 5.56169 17.7539Z" fill="white"/>
<path d="M28.168 43.5938C28.0558 43.5951 27.9439 43.5824 27.8349 43.556C19.6743 41.5345 16.6271 33.3765 16.5032 33.0372L16.4838 32.9625C16.417 32.727 14.7796 27.1327 17.2933 23.8562C18.4456 22.362 20.1981 21.5956 22.5123 21.5956C24.6638 21.5956 26.216 22.2645 27.283 23.6487C28.1619 24.779 28.5134 26.173 28.8536 27.5159C29.5681 30.3126 30.084 31.7813 33.0539 31.9324C34.3582 31.9983 35.2151 31.2355 35.7011 30.5859C37.0151 28.8149 37.2436 25.9277 36.2531 23.3789C34.9804 20.0892 30.4637 13.8867 22.5 13.8867C19.1003 13.8867 15.9767 14.9792 13.4718 17.0323C11.3985 18.733 9.75582 21.1342 8.9648 23.6022C7.49791 28.1971 9.42183 35.4199 9.44029 35.4858C9.48521 35.654 9.49602 35.8293 9.47208 36.0017C9.44814 36.174 9.38993 36.3398 9.30089 36.4893C9.21185 36.6388 9.09378 36.769 8.95364 36.8721C8.8135 36.9753 8.65413 37.0493 8.48492 37.0899C8.14308 37.1808 7.77923 37.1341 7.47135 36.96C7.16347 36.7858 6.93606 36.498 6.83785 36.1582C6.74996 35.8286 4.69508 28.125 6.38961 22.8147C8.23531 17.0605 13.9315 11.2597 22.5026 11.2597C26.4638 11.2597 30.2062 12.6062 33.3298 15.1488C35.7486 17.1264 37.7244 19.7824 38.758 22.4376C40.0719 25.8275 39.7195 29.6323 37.8624 32.1179C36.6249 33.7755 34.8627 34.6421 32.9106 34.5481C27.8253 34.2932 26.9112 30.7433 26.245 28.154C25.5594 25.498 25.1209 24.2174 22.5026 24.2174C21.0647 24.2174 20.0548 24.6129 19.4264 25.432C18.5695 26.5526 18.5027 28.3043 18.5976 29.5752C18.6599 30.4606 18.8101 31.3377 19.0459 32.1935C19.255 32.7208 21.9788 39.4005 28.502 41.0168C28.6706 41.0567 28.8296 41.1298 28.9697 41.2317C29.1099 41.3336 29.2283 41.4624 29.3183 41.6105C29.4083 41.7586 29.4679 41.923 29.4937 42.0944C29.5196 42.2657 29.5111 42.4405 29.4688 42.6085C29.3892 42.8922 29.219 43.142 28.9841 43.3199C28.7493 43.4978 28.4627 43.594 28.168 43.5938Z" fill="white"/>
<path d="M17.6933 42.9908C17.5103 42.9912 17.3292 42.9547 17.1607 42.8836C16.9922 42.8125 16.8397 42.7082 16.7124 42.5769C13.4464 39.1491 11.5989 35.3162 10.9037 30.5235V30.498C10.5135 27.3252 11.0848 22.8331 13.8841 19.7446C15.9504 17.4656 18.8552 16.3072 22.5026 16.3072C26.8163 16.3072 30.2062 18.3129 32.32 22.0983C33.8537 24.8484 34.1578 27.5889 34.1657 27.7014C34.1818 27.8748 34.1635 28.0497 34.1119 28.2161C34.0603 28.3825 33.9763 28.5371 33.8649 28.6709C33.7535 28.8048 33.6167 28.9154 33.4624 28.9964C33.3082 29.0774 33.1395 29.1271 32.966 29.1428C32.616 29.1808 32.265 29.0796 31.9889 28.861C31.7128 28.6425 31.5337 28.3241 31.4903 27.9747C31.2588 26.3304 30.7267 24.7427 29.9206 23.291C28.2823 20.4003 25.7897 18.9308 22.493 18.9308C19.6453 18.9308 17.4173 19.7877 15.8845 21.4796C13.6749 23.9185 13.2478 27.6759 13.551 30.1614C14.1601 34.3995 15.7887 37.771 18.6645 40.7839C18.7845 40.9087 18.8782 41.0565 18.94 41.2183C19.0018 41.3801 19.0304 41.5526 19.0242 41.7257C19.0179 41.8988 18.977 42.0689 18.9037 42.2258C18.8304 42.3827 18.7263 42.5233 18.5977 42.6393C18.3498 42.8639 18.0278 42.9891 17.6933 42.9908Z" fill="white"/>
<path d="M32.7392 39.215C29.8828 39.215 27.4543 38.424 25.5111 36.8517C21.607 33.7061 21.1693 28.5829 21.15 28.3667C21.1224 28.0118 21.237 27.6605 21.4685 27.3901C21.7 27.1197 22.0295 26.9524 22.3844 26.9249C22.7393 26.8973 23.0906 27.0119 23.361 27.2434C23.6314 27.4749 23.7987 27.8044 23.8262 28.1593C23.8359 28.2349 24.2261 32.4255 27.2355 34.839C29.0162 36.261 31.3962 36.8253 34.3291 36.4957C34.6797 36.4532 35.0328 36.5512 35.3113 36.7682C35.5898 36.9853 35.771 37.3038 35.8154 37.6541C35.8346 37.8271 35.8191 38.0023 35.7699 38.1693C35.7207 38.3363 35.6387 38.4918 35.5288 38.6268C35.4188 38.7618 35.2831 38.8736 35.1295 38.9555C34.9759 39.0375 34.8075 39.0881 34.6341 39.1043C34.0051 39.1777 33.3725 39.2147 32.7392 39.215ZM34.9962 4.28818C33.8818 3.56309 29.9302 1.40625 22.5 1.40625C14.7005 1.40625 10.7393 3.78896 9.86304 4.39453C9.80516 4.43005 9.75099 4.47127 9.70132 4.51758C9.69608 4.52265 9.68925 4.52575 9.68198 4.52637C9.54205 4.64854 9.42978 4.79914 9.35263 4.96812C9.27549 5.1371 9.23526 5.32059 9.23462 5.50635C9.23702 5.68048 9.27376 5.85242 9.34274 6.01232C9.41171 6.17222 9.51156 6.31694 9.63656 6.43819C9.76156 6.55944 9.90926 6.65482 10.0712 6.71889C10.2331 6.78295 10.4061 6.81443 10.5802 6.81152C10.8593 6.81134 11.1317 6.72577 11.3607 6.56631C11.3985 6.53818 14.8078 4.0333 22.5026 4.0333C30.1974 4.0333 33.6251 6.52939 33.6621 6.54785C33.8961 6.72138 34.1802 6.81394 34.4715 6.81152C34.6458 6.8142 34.8189 6.78243 34.9808 6.71804C35.1428 6.65365 35.2904 6.55791 35.4153 6.43632C35.5402 6.31472 35.6398 6.16967 35.7084 6.00947C35.7771 5.84928 35.8134 5.67711 35.8154 5.50283C35.8155 5.24179 35.7375 4.98667 35.5916 4.77024C35.4456 4.55381 35.2383 4.38594 34.9962 4.28818Z" fill="white"/>
</svg>
