<svg width="675" height="435" viewBox="0 0 675 435" fill="none" xmlns="http://www.w3.org/2000/svg">
<g clip-path="url(#clip0_6_5958)">
<path d="M602.171 416.422L613.27 416.714C616.376 411.781 618.23 406.166 618.671 400.355C611.559 407.892 599.013 405.998 589.827 410.799C586.973 412.318 584.498 414.46 582.586 417.065C580.673 419.67 579.371 422.671 578.777 425.848L574.2 432.252C579.26 433.534 584.537 433.704 589.669 432.751C594.8 431.798 599.664 429.745 603.925 426.733C606.299 425.019 608.448 423.013 610.32 420.763C606.203 418.86 602.171 416.422 602.171 416.422Z" fill="#F2F2F2"/>
<path d="M596.057 399.533L606.122 394.847C606.7 389.048 605.854 383.196 603.655 377.798C600.653 387.714 588.579 391.611 582.499 400.002C580.623 402.633 579.363 405.653 578.814 408.837C578.264 412.021 578.439 415.288 579.324 418.396L578.086 426.168C583.187 425.06 587.986 422.86 592.154 419.72C596.322 416.58 599.759 412.575 602.229 407.979C603.588 405.387 604.616 402.635 605.288 399.787C600.754 399.918 596.057 399.533 596.057 399.533Z" fill="#F2F2F2"/>
<path d="M579.538 426.494H572.729L569.491 400.251H579.538L579.538 426.494Z" fill="#A0616A"/>
<path d="M579.356 424.271L572.092 421.322L571.878 421.234L567.867 424.271C565.665 424.27 563.549 425.12 561.959 426.641C560.369 428.162 559.428 430.238 559.333 432.436C559.322 432.557 559.322 432.683 559.322 432.81V433.09H581.274V424.271L579.356 424.271Z" fill="#2F2E41"/>
<path d="M566.573 412.922L560.705 416.373L544.596 395.397L553.256 390.305L566.573 412.922Z" fill="#A0616A"/>
<path d="M570.625 416.38L569.828 415.023L566.944 410.125L565.443 411.009L565.29 411.097L557.531 412.239L557.3 412.272L555.388 416.923C554.421 417.492 553.575 418.245 552.899 419.14C552.223 420.036 551.73 421.055 551.448 422.141C551.166 423.227 551.101 424.357 551.257 425.468C551.413 426.578 551.786 427.648 552.355 428.614L552.498 428.85L571.416 417.725L570.625 416.38Z" fill="#2F2E41"/>
<path d="M588.16 266.062C591.352 275.682 591.014 286.125 587.393 297.333L586.447 335.862L583.411 360.166C585.242 364.928 586.182 369.986 586.182 375.088C586.169 388.46 585.27 407.457 580.708 416.382H569.913L567.476 376.64L564.569 356.658L564.21 335.246L563.897 316.571L552.16 333.723L540.755 350.391L552.091 369.501L561.982 400.252L551.542 409.038L539.698 386.599L533.958 379.934L518.29 346.037L519.698 341.317C522.598 331.597 526.809 322.318 532.216 313.734L547.802 277.585L588.16 266.062Z" fill="#2F2E41"/>
<path d="M408.365 273.251H194.153C192.444 273.249 190.805 272.569 189.596 271.361C188.387 270.154 187.708 268.516 187.706 266.808V103.168C187.708 101.46 188.387 99.8221 189.596 98.6143C190.805 97.4064 192.444 96.727 194.153 96.7251H408.365C410.075 96.727 411.713 97.4064 412.922 98.6143C414.131 99.8221 414.81 101.46 414.812 103.168V266.808C414.81 268.516 414.131 270.154 412.922 271.361C411.713 272.569 410.075 273.249 408.365 273.251Z" fill="white"/>
<path d="M408.365 274.049H194.153C192.232 274.047 190.39 273.283 189.031 271.926C187.673 270.568 186.909 268.728 186.906 266.808V103.168C186.909 101.248 187.673 99.4072 189.031 98.0496C190.39 96.692 192.232 95.9284 194.153 95.9263H408.365C410.286 95.9284 412.128 96.692 413.487 98.0496C414.845 99.4072 415.609 101.248 415.612 103.168V266.808C415.609 268.728 414.845 270.568 413.487 271.926C412.128 273.284 410.286 274.047 408.365 274.049ZM194.153 97.5238C192.656 97.5254 191.22 98.1206 190.161 99.1787C189.102 100.237 188.507 101.671 188.505 103.168V266.808C188.507 268.304 189.102 269.739 190.161 270.797C191.22 271.855 192.656 272.45 194.153 272.452H408.365C409.862 272.45 411.298 271.855 412.357 270.797C413.416 269.739 414.011 268.304 414.013 266.808V103.168C414.011 101.671 413.416 100.237 412.357 99.1787C411.298 98.1206 409.862 97.5254 408.365 97.5238H194.153Z" fill="#F0F0F0"/>
<path d="M188.2 242.099V266.808C188.203 268.385 188.831 269.896 189.946 271.011C191.062 272.126 192.575 272.754 194.153 272.756H408.365C409.943 272.754 411.456 272.126 412.572 271.011C413.687 269.896 414.315 268.385 414.318 266.808V242.099H188.2Z" fill="#F0F0F0"/>
<path d="M190.219 97.7674L189.357 99.1125L413.887 242.771L414.748 241.426L190.219 97.7674Z" fill="#F0F0F0"/>
<path d="M557.78 29.1965H52.3828C52.1707 29.1918 51.9688 29.1044 51.8204 28.9528C51.672 28.8012 51.5889 28.5975 51.5889 28.3855C51.5889 28.1734 51.672 27.9698 51.8204 27.8182C51.9688 27.6666 52.1707 27.5791 52.3828 27.5745H557.78C557.992 27.5791 558.194 27.6666 558.342 27.8182C558.491 27.9698 558.574 28.1734 558.574 28.3855C558.574 28.5975 558.491 28.8012 558.342 28.9528C558.194 29.1044 557.992 29.1918 557.78 29.1965Z" fill="#CACACA"/>
<path d="M70.2506 17.8424C75.0733 17.8424 78.9829 13.8482 78.9829 8.92118C78.9829 3.99415 75.0733 0 70.2506 0C65.4279 0 61.5183 3.99415 61.5183 8.92118C61.5183 13.8482 65.4279 17.8424 70.2506 17.8424Z" fill="#3F3D56"/>
<path d="M100.417 17.8424C105.239 17.8424 109.149 13.8482 109.149 8.92118C109.149 3.99415 105.239 0 100.417 0C95.594 0 91.6844 3.99415 91.6844 8.92118C91.6844 13.8482 95.594 17.8424 100.417 17.8424Z" fill="#3F3D56"/>
<path d="M130.583 17.8424C135.405 17.8424 139.315 13.8482 139.315 8.92118C139.315 3.99415 135.405 0 130.583 0C125.76 0 121.85 3.99415 121.85 8.92118C121.85 13.8482 125.76 17.8424 130.583 17.8424Z" fill="#3F3D56"/>
<path d="M539.703 2.21118H518.274C517.849 2.21961 517.445 2.39415 517.148 2.69732C516.85 3.00048 516.684 3.40811 516.684 3.83266C516.684 4.25721 516.85 4.66484 517.148 4.96801C517.445 5.27117 517.849 5.44571 518.274 5.45414H539.703C540.127 5.44571 540.532 5.27117 540.829 4.96801C541.127 4.66484 541.293 4.25721 541.293 3.83266C541.293 3.40811 541.127 3.00048 540.829 2.69732C540.532 2.39415 540.127 2.21961 539.703 2.21118Z" fill="#3F3D56"/>
<path d="M539.703 8.29785H518.274C517.849 8.30628 517.445 8.48082 517.148 8.78399C516.85 9.08715 516.684 9.49478 516.684 9.91933C516.684 10.3439 516.85 10.7515 517.148 11.0547C517.445 11.3578 517.849 11.5324 518.274 11.5408H539.703C540.127 11.5324 540.532 11.3578 540.829 11.0547C541.127 10.7515 541.293 10.3439 541.293 9.91933C541.293 9.49478 541.127 9.08715 540.829 8.78399C540.532 8.48082 540.127 8.30628 539.703 8.29785Z" fill="#3F3D56"/>
<path d="M539.703 14.3762H518.274C517.849 14.3846 517.445 14.5592 517.148 14.8624C516.85 15.1655 516.684 15.5731 516.684 15.9977C516.684 16.4223 516.85 16.8299 517.148 17.133C517.445 17.4362 517.849 17.6108 518.274 17.6192H539.703C540.127 17.6108 540.532 17.4362 540.829 17.133C541.127 16.8299 541.293 16.4223 541.293 15.9977C541.293 15.5731 541.127 15.1655 540.829 14.8624C540.532 14.5592 540.127 14.3846 539.703 14.3762Z" fill="#3F3D56"/>
<path d="M480.972 219.888C481.439 220.503 482.037 221.008 482.721 221.368C483.406 221.727 484.161 221.932 484.933 221.969C485.705 222.005 486.476 221.872 487.192 221.578C487.907 221.285 488.549 220.838 489.073 220.269L506.31 227.761L504.631 218.145L488.52 212.505C487.506 211.689 486.228 211.273 484.927 211.336C483.627 211.399 482.395 211.936 481.464 212.846C480.534 213.756 479.97 214.975 479.879 216.273C479.788 217.571 480.177 218.857 480.972 219.888V219.888Z" fill="#A0616A"/>
<path d="M496.654 214.455L529.582 218.72L563.539 198.278C565.355 197.184 567.382 196.488 569.487 196.234C571.592 195.98 573.726 196.175 575.75 196.805C577.774 197.435 579.642 198.487 581.23 199.89C582.818 201.293 584.091 203.017 584.965 204.948C586.541 208.441 586.721 212.405 585.468 216.028C584.214 219.65 581.623 222.656 578.224 224.431L532.595 240.681L532.509 240.712L492.474 222.89L496.654 214.455Z" fill="#3F3D56"/>
<path d="M544.741 271.879L547.478 265.041L545.667 259.161L551.031 200.564L551.823 191.683L551.877 185.063L570.217 184.615L572.206 189.663L576.141 192.015C580.432 194.587 583.97 198.243 586.398 202.615C588.827 206.987 590.06 211.921 589.974 216.921L589.263 255.357L591.094 259.016C591.591 260.009 591.867 261.098 591.903 262.208C591.94 263.319 591.735 264.423 591.304 265.447C590.873 266.471 590.225 267.389 589.405 268.139C588.585 268.889 587.612 269.453 586.554 269.791L546.235 282.037L544.741 271.879Z" fill="#3F3D56"/>
<path d="M559.367 178.339C568.57 178.339 576.031 170.883 576.031 161.686C576.031 152.489 568.57 145.033 559.367 145.033C550.164 145.033 542.703 152.489 542.703 161.686C542.703 170.883 550.164 178.339 559.367 178.339Z" fill="#A0616A"/>
<path d="M576.719 165.316C577.216 163.224 576.988 160.279 576.707 158.172C576.347 155.394 575.408 152.722 573.949 150.33C572.49 147.938 570.544 145.879 568.238 144.287C567.354 143.616 566.303 143.198 565.199 143.08C564.647 143.033 564.095 143.163 563.621 143.449C563.147 143.735 562.776 144.164 562.561 144.674C562.283 143.981 561.866 143.352 561.336 142.826C560.805 142.3 560.172 141.889 559.476 141.617C558.078 141.082 556.575 140.879 555.085 141.026C552.197 141.264 549.427 142.278 547.07 143.962C544.712 145.647 542.855 147.937 541.695 150.591C541.25 151.647 540.007 147.744 539.443 148.743C538.925 149.78 538.021 150.574 536.924 150.954C535.819 151.263 535.37 155.812 534.936 154.751C534.598 155.535 534.465 156.392 534.548 157.241C534.631 158.091 534.928 158.906 535.411 159.609C535.894 160.313 536.547 160.884 537.31 161.267C538.073 161.651 538.92 161.835 539.774 161.803C540.889 161.659 541.995 161.448 543.085 161.17C545.087 160.918 547.111 161.407 548.777 162.545C550.442 163.682 551.633 165.39 552.124 167.345C552.429 166.208 552.914 165.128 553.563 164.146C553.893 163.657 554.334 163.254 554.851 162.971C555.367 162.687 555.944 162.531 556.533 162.515C557.097 162.579 557.641 162.758 558.132 163.041C558.624 163.323 559.052 163.703 559.391 164.157C560.125 165.017 560.676 166.022 561.415 166.878C563.584 169.39 566.516 175.249 569.607 174.822C572.046 174.485 576.041 168.173 576.719 165.316Z" fill="#2F2E41"/>
<path d="M608.313 302.084C608.743 301.442 609.028 300.713 609.146 299.95C609.264 299.186 609.213 298.406 608.997 297.664C608.781 296.922 608.405 296.236 607.895 295.655C607.385 295.074 606.754 294.612 606.046 294.302L607.544 275.577L598.987 280.284L598.876 297.344C598.433 298.567 598.454 299.91 598.935 301.119C599.416 302.328 600.325 303.318 601.488 303.903C602.651 304.487 603.988 304.624 605.246 304.289C606.504 303.954 607.595 303.169 608.313 302.084Z" fill="#A0616A"/>
<path d="M598.082 289.022L591.435 256.512L561.068 231.045C559.445 229.683 558.128 227.993 557.204 226.086C556.281 224.179 555.773 222.098 555.712 219.98C555.652 217.862 556.041 215.755 556.854 213.799C557.667 211.842 558.886 210.08 560.429 208.628C563.225 206.004 566.919 204.548 570.754 204.557C574.589 204.566 578.275 206.04 581.058 208.677L611.244 246.538L611.301 246.609L607.423 290.237L598.082 289.022Z" fill="#3F3D56"/>
<path d="M674.048 435H395.912C395.787 435 395.663 434.976 395.547 434.928C395.431 434.881 395.326 434.811 395.237 434.722C395.149 434.634 395.078 434.529 395.03 434.414C394.982 434.298 394.958 434.174 394.958 434.049C394.958 433.924 394.982 433.8 395.03 433.684C395.078 433.569 395.149 433.464 395.237 433.375C395.326 433.287 395.431 433.217 395.547 433.169C395.663 433.122 395.787 433.098 395.912 433.098H674.048C674.174 433.098 674.298 433.122 674.413 433.169C674.529 433.217 674.634 433.287 674.723 433.375C674.812 433.464 674.882 433.569 674.93 433.684C674.978 433.8 675.003 433.924 675.003 434.049C675.003 434.174 674.978 434.298 674.93 434.414C674.882 434.529 674.812 434.634 674.723 434.722C674.634 434.811 674.529 434.881 674.413 434.928C674.298 434.976 674.174 435 674.048 435Z" fill="#CCCCCC"/>
<path d="M494.299 280.326H367.902C367.022 280.325 366.177 279.975 365.554 279.352C364.932 278.73 364.581 277.886 364.58 277.006V225.752C364.581 224.872 364.932 224.028 365.554 223.406C366.177 222.783 367.022 222.433 367.902 222.432H494.299C495.179 222.433 496.024 222.783 496.647 223.406C497.27 224.028 497.62 224.872 497.621 225.752V277.006C497.62 277.886 497.27 278.73 496.647 279.352C496.024 279.975 495.179 280.325 494.299 280.326Z" fill="#8858F9"/>
<path d="M482.263 304.912H379.938C379.414 304.913 378.895 304.811 378.41 304.611C377.926 304.411 377.486 304.118 377.115 303.747C376.744 303.377 376.45 302.938 376.249 302.454C376.049 301.971 375.945 301.452 375.945 300.928C375.945 300.405 376.049 299.886 376.249 299.402C376.45 298.919 376.744 298.479 377.115 298.109C377.486 297.739 377.926 297.446 378.41 297.246C378.895 297.046 379.414 296.943 379.938 296.944H482.263C487.405 296.872 487.456 304.985 482.263 304.912Z" fill="#E4E4E4"/>
<path d="M482.263 323.173H379.938C378.88 323.173 377.866 322.753 377.119 322.006C376.371 321.259 375.951 320.246 375.951 319.189C375.951 318.132 376.371 317.119 377.119 316.372C377.866 315.625 378.88 315.205 379.938 315.205H482.263C487.405 315.133 487.456 323.246 482.263 323.173Z" fill="#E4E4E4"/>
<path d="M482.263 341.434H379.938C379.414 341.435 378.895 341.332 378.41 341.132C377.926 340.932 377.486 340.639 377.115 340.269C376.744 339.899 376.45 339.459 376.249 338.976C376.049 338.492 375.945 337.973 375.945 337.45C375.945 336.926 376.049 336.408 376.249 335.924C376.45 335.44 376.744 335.001 377.115 334.63C377.486 334.26 377.926 333.967 378.41 333.767C378.895 333.567 379.414 333.465 379.938 333.466H482.263C487.405 333.394 487.456 341.506 482.263 341.434Z" fill="#E4E4E4"/>
<path d="M166.966 370.936L177.55 367.581C178.869 361.905 178.781 355.992 177.295 350.357C173.043 359.805 160.568 362.12 153.461 369.661C151.262 372.03 149.625 374.863 148.67 377.95C147.716 381.038 147.469 384.3 147.948 387.496L145.722 395.044C150.922 394.6 155.965 393.035 160.501 390.456C165.038 387.877 168.962 384.345 172.001 380.105C173.683 377.709 175.056 375.111 176.088 372.373C171.575 371.921 166.966 370.936 166.966 370.936Z" fill="#F2F2F2"/>
<path d="M155.657 356.978L163.633 349.258C162.28 343.589 159.563 338.336 155.718 333.955C156.129 344.306 145.996 351.938 143 361.856C142.089 364.956 141.888 368.222 142.412 371.41C142.935 374.599 144.17 377.629 146.025 380.275L147.401 388.024C151.857 385.309 155.672 381.66 158.582 377.33C161.491 372.999 163.427 368.09 164.255 362.94C164.691 360.046 164.761 357.109 164.463 354.198C160.222 355.805 155.657 356.978 155.657 356.978Z" fill="#F2F2F2"/>
<path d="M176.979 213.242C176.108 213.359 175.222 213.283 174.383 213.02C173.544 212.758 172.773 212.315 172.124 211.722C171.475 211.129 170.964 210.402 170.627 209.59C170.29 208.779 170.135 207.904 170.173 207.026L131.731 168.046L142.463 160.58L176.876 201.244C178.347 201.405 179.707 202.101 180.7 203.198C181.692 204.295 182.247 205.718 182.26 207.197C182.273 208.676 181.742 210.108 180.769 211.222C179.796 212.336 178.447 213.055 176.979 213.242Z" fill="#FFB6B6"/>
<path d="M119.905 151.186C119.905 151.186 117.181 152.818 121.715 157.787C125.346 161.766 141.188 180.894 147.511 184.887C146.822 186.877 164.313 205.929 166.152 207.143L175.875 195.019C175.319 191.542 156.189 174.946 154.872 175.368L148.772 167.791L134.951 144.624L121.854 149.971L119.905 151.186Z" fill="#8858F9"/>
<path d="M89.5462 383.446H96.7932L100.242 355.51H89.5454L89.5462 383.446Z" fill="#FFB6B6"/>
<path d="M87.1806 378.485L98.759 377.794V382.752L109.767 390.35C110.311 390.725 110.72 391.264 110.936 391.888C111.151 392.512 111.161 393.189 110.965 393.819C110.768 394.45 110.375 395.001 109.843 395.392C109.31 395.784 108.667 395.995 108.006 395.995H94.2216L91.8456 391.091L90.9179 395.995H85.7206L87.1806 378.485Z" fill="#2F2E41"/>
<path d="M130.255 383.446H137.502L140.951 355.51H130.255V383.446Z" fill="#FFB6B6"/>
<path d="M127.89 378.485L139.468 377.794V382.752L150.476 390.35C151.02 390.725 151.429 391.264 151.645 391.888C151.86 392.512 151.871 393.189 151.674 393.819C151.477 394.45 151.084 395.001 150.552 395.392C150.02 395.784 149.376 395.995 148.715 395.995H134.931L132.555 391.091L131.627 395.995H126.43L127.89 378.485Z" fill="#2F2E41"/>
<path d="M86.4189 359.355H86.4977L87.8915 313.932C86.9895 312.193 86.5317 310.259 86.5589 308.3C86.5861 306.342 87.0975 304.421 88.0474 302.708L88.2469 302.347L87.7295 299.95C87.065 296.871 87.37 293.661 88.6026 290.762L89.9028 248.39C85.2575 218.304 107.396 198.682 107.396 198.682L103.35 181.675L143.403 177.738L140.56 198.682L147.68 223.129C152.386 268.957 151.532 313.615 144.063 356.881L144.267 356.984C145 357.237 145.315 358.252 144.969 359.251C144.624 360.25 143.75 360.855 143.017 360.602L125.503 359.994C124.769 359.741 124.455 358.726 124.8 357.726C125.145 356.727 126.019 356.122 126.753 356.375L127.943 356.977L125.404 313.146L125.686 305.139L125.105 296.057L122.42 255.202L112.259 305.442L101.879 359.861C102.165 360.12 102.366 360.459 102.455 360.835C102.544 361.21 102.517 361.604 102.378 361.964C102.239 362.324 101.993 362.633 101.674 362.851C101.355 363.068 100.978 363.184 100.592 363.183H86.4189C85.9116 363.182 85.4254 362.98 85.0671 362.621C84.7088 362.262 84.5075 361.776 84.5075 361.269C84.5075 360.762 84.7088 360.276 85.0671 359.917C85.4254 359.558 85.9116 359.356 86.4189 359.355L86.4189 359.355Z" fill="#2F2E41"/>
<path d="M135.602 138.888L127.725 134.165L111.972 132.59L98.0479 139.676L98.1875 161.322L107.021 183.773L141.433 190.861L145.448 171.131C145.448 171.131 155.688 157.386 144.66 149.515L135.602 138.888Z" fill="#8858F9"/>
<path d="M101.885 232.348C101.137 231.887 100.498 231.268 100.015 230.534C99.532 229.8 99.2157 228.97 99.0886 228.1C98.9615 227.231 99.0266 226.345 99.2794 225.503C99.5322 224.662 99.9665 223.886 100.552 223.231L95.4724 168.737L108.51 169.743L109.403 222.992C110.44 224.048 111.053 225.447 111.126 226.924C111.2 228.401 110.729 229.854 109.802 231.007C108.875 232.16 107.558 232.934 106.098 233.181C104.639 233.428 103.14 233.132 101.885 232.348Z" fill="#FFB6B6"/>
<path d="M98.5308 139.893C98.5308 139.893 95.3878 139.434 95.7519 146.15C96.0433 151.526 94.6581 184.665 97.0251 191.757C95.231 192.861 95.1355 219.833 95.7901 221.937L110.996 218.698C112.767 215.655 111.601 187.769 110.314 187.263L110.389 177.538L113.75 145.483L100.809 140.185L98.5308 139.893Z" fill="#8858F9"/>
<path d="M176.246 237.39C175.838 236.893 175.547 236.312 175.393 235.689C175.238 235.066 175.225 234.416 175.353 233.787C176.857 226.307 176.857 218.603 175.353 211.123C175.225 210.494 175.238 209.845 175.393 209.221C175.547 208.598 175.838 208.017 176.246 207.521C176.636 207.043 177.126 206.657 177.682 206.389C178.238 206.121 178.846 205.978 179.463 205.97C186.087 203.332 192.431 203.332 198.322 205.97C199.339 205.988 200.316 206.368 201.079 207.041C201.841 207.715 202.339 208.638 202.481 209.644C203.638 218.146 203.638 226.765 202.481 235.266C202.337 236.285 201.829 237.218 201.052 237.893C200.274 238.568 199.28 238.94 198.25 238.941H179.527C178.899 238.942 178.279 238.804 177.711 238.535C177.144 238.267 176.643 237.876 176.246 237.39Z" fill="#8858F9"/>
<path d="M181.488 215.739H197.246C197.507 215.738 197.757 215.634 197.941 215.45C198.125 215.265 198.228 215.015 198.228 214.755C198.228 214.494 198.125 214.244 197.941 214.06C197.757 213.875 197.507 213.771 197.246 213.771H181.488C181.227 213.771 180.976 213.874 180.791 214.059C180.607 214.243 180.503 214.494 180.503 214.755C180.503 215.016 180.607 215.266 180.791 215.451C180.976 215.635 181.227 215.739 181.488 215.739Z" fill="white"/>
<path d="M181.488 223.613H197.246C197.507 223.612 197.757 223.508 197.941 223.324C198.125 223.139 198.228 222.889 198.228 222.629C198.228 222.368 198.125 222.118 197.941 221.934C197.757 221.749 197.507 221.645 197.246 221.645H181.488C181.227 221.645 180.977 221.749 180.793 221.934C180.609 222.118 180.506 222.368 180.506 222.629C180.506 222.889 180.609 223.139 180.793 223.324C180.977 223.508 181.227 223.612 181.488 223.613Z" fill="white"/>
<path d="M181.488 231.487H197.246C197.507 231.487 197.758 231.384 197.943 231.199C198.127 231.014 198.231 230.764 198.231 230.503C198.231 230.242 198.127 229.992 197.943 229.807C197.758 229.622 197.507 229.519 197.246 229.519H181.488C181.227 229.519 180.976 229.622 180.791 229.807C180.607 229.992 180.503 230.242 180.503 230.503C180.503 230.764 180.607 231.014 180.791 231.199C180.976 231.384 181.227 231.487 181.488 231.487Z" fill="white"/>
<path d="M225.93 395.709C225.93 395.834 225.906 395.958 225.858 396.073C225.81 396.189 225.74 396.294 225.652 396.382C225.563 396.47 225.458 396.54 225.343 396.588C225.227 396.636 225.103 396.66 224.978 396.66H0.951102C0.698847 396.66 0.45692 396.559 0.278548 396.381C0.100176 396.203 -3.05176e-05 395.961 -3.05176e-05 395.709C-3.05176e-05 395.457 0.100176 395.215 0.278548 395.037C0.45692 394.859 0.698847 394.759 0.951102 394.759H224.978C225.103 394.758 225.227 394.782 225.343 394.83C225.458 394.878 225.563 394.948 225.652 395.036C225.74 395.124 225.81 395.229 225.858 395.345C225.906 395.46 225.93 395.584 225.93 395.709Z" fill="#CCCCCC"/>
<path d="M134.613 124.543V109.877C134.616 107.295 134.111 104.738 133.125 102.352C132.139 99.9651 130.692 97.7963 128.867 95.9689C127.042 94.1415 124.874 92.6914 122.488 91.7014C120.102 90.7115 117.544 90.2011 114.961 90.1995C112.377 90.1978 109.819 90.7049 107.431 91.6918C105.044 92.6787 102.875 94.126 101.047 95.951C99.2197 97.7761 97.77 99.9431 96.781 102.328C95.7919 104.713 95.2828 107.27 95.2828 109.852V109.877C91.8168 117.095 93.9852 120.527 95.2828 124.543C95.2839 125.243 95.5625 125.913 96.0574 126.408C96.5523 126.903 97.2233 127.181 97.9232 127.182H131.971C132.671 127.181 133.343 126.903 133.838 126.408C134.333 125.914 134.612 125.243 134.613 124.543Z" fill="#2F2E41"/>
<path d="M121.396 126.229C129.525 126.229 136.116 119.643 136.116 111.519C136.116 103.394 129.525 96.8079 121.396 96.8079C113.266 96.8079 106.676 103.394 106.676 111.519C106.676 119.643 113.266 126.229 121.396 126.229Z" fill="#FFB7B7"/>
<path d="M105.99 115.375C106.124 115.354 106.257 115.326 106.391 115.305C108.687 114.898 110.983 114.498 113.272 114.084L113.483 108.898L116.256 113.543C122.583 115.642 128.502 114.456 134.07 111.838C135.907 110.967 137.689 109.985 139.407 108.898C138.939 106.03 137.836 103.303 136.177 100.916C134.519 98.5288 132.348 96.5424 129.822 95.1021C129.612 94.9828 129.408 94.8776 129.197 94.7723C129.196 94.7723 129.195 94.7721 129.195 94.7717C129.194 94.7714 129.193 94.7709 129.192 94.7702C129.192 94.7696 129.191 94.7688 129.191 94.7679C129.19 94.7671 129.19 94.7662 129.19 94.7652C128.832 94.5968 128.467 94.4354 128.102 94.2881C125.243 93.1717 122.126 92.889 119.113 93.4728C116.1 94.0566 113.315 95.483 111.081 97.5862C106.587 101.874 104.565 108.954 105.99 115.375Z" fill="#2F2E41"/>
</g>
<defs>
<clipPath id="clip0_6_5958">
<rect width="675" height="435" fill="white"/>
</clipPath>
</defs>
</svg>
