<svg width="45" height="45" viewBox="0 0 45 45" fill="none" xmlns="http://www.w3.org/2000/svg">
<path d="M13.3594 16.875C15.301 16.875 16.875 15.301 16.875 13.3594C16.875 11.4177 15.301 9.84375 13.3594 9.84375C11.4177 9.84375 9.84375 11.4177 9.84375 13.3594C9.84375 15.301 11.4177 16.875 13.3594 16.875Z" fill="white"/>
<path d="M13.3594 35.1562C15.301 35.1562 16.875 33.5823 16.875 31.6406C16.875 29.699 15.301 28.125 13.3594 28.125C11.4177 28.125 9.84375 29.699 9.84375 31.6406C9.84375 33.5823 11.4177 35.1562 13.3594 35.1562Z" fill="white"/>
<path d="M31.6406 35.1562C33.5823 35.1562 35.1562 33.5823 35.1562 31.6406C35.1562 29.699 33.5823 28.125 31.6406 28.125C29.699 28.125 28.125 29.699 28.125 31.6406C28.125 33.5823 29.699 35.1562 31.6406 35.1562Z" fill="white"/>
<path d="M39.375 2.8125H5.625C4.87931 2.81324 4.16437 3.1098 3.63708 3.63708C3.1098 4.16437 2.81324 4.87931 2.8125 5.625V39.375C2.81324 40.1207 3.1098 40.8356 3.63708 41.3629C4.16437 41.8902 4.87931 42.1868 5.625 42.1875H39.375C40.1207 42.1868 40.8356 41.8902 41.3629 41.3629C41.8902 40.8356 42.1868 40.1207 42.1875 39.375V5.625C42.1868 4.87931 41.8902 4.16437 41.3629 3.63708C40.8356 3.1098 40.1207 2.81324 39.375 2.8125ZM39.375 21.0938H23.9062V5.625H39.375V21.0938ZM21.0938 5.625V21.0938H5.625V5.625H21.0938ZM5.625 23.9062H21.0938V39.375H5.625V23.9062ZM23.9062 39.375V23.9062H39.375V39.375H23.9062Z" fill="white"/>
</svg>
