<svg width="45" height="46" viewBox="0 0 45 46" fill="none" xmlns="http://www.w3.org/2000/svg">
<path d="M43.1699 40.9904C42.7699 40.9904 42.3679 40.8515 42.0385 40.5671L12.1199 14.7419C10.8247 15.6031 9.33305 16.0339 7.84205 16.0339C5.83332 16.034 3.82526 15.2527 2.29631 13.6897C-0.764635 10.5607 -0.764467 5.47261 2.29471 2.34554C5.30524 -0.731975 10.1736 -0.781096 13.243 2.19844C13.2999 2.24377 13.3544 2.29289 13.406 2.34563C14.1564 3.11273 14.7412 4.03321 15.144 5.08153C15.4984 6.00374 15.0543 7.04501 14.1521 7.40726C13.2499 7.76961 12.2313 7.31547 11.8769 6.39335C11.6717 5.85947 11.3875 5.3902 11.0308 4.99645C10.9883 4.96058 10.9473 4.92247 10.9081 4.88238C9.21793 3.15445 6.46735 3.1548 4.77665 4.8829C3.08603 6.61109 3.08586 9.42278 4.77614 11.1506C6.46803 12.8801 9.21809 12.8792 10.9087 11.1511C11.5536 10.4919 12.5851 10.4475 13.282 11.0489L44.303 37.8257C45.0436 38.4649 45.137 39.5968 44.5116 40.3538C44.1645 40.7741 43.6688 40.9904 43.1699 40.9904ZM13.2433 43.7219C13.3002 43.6765 13.3546 43.6276 13.406 43.5749C14.1564 42.8079 14.7412 41.8873 15.1441 40.8389C15.4984 39.9168 15.0543 38.8755 14.1521 38.5132C13.25 38.1509 12.2313 38.6049 11.8769 39.5272C11.6717 40.0611 11.3875 40.5304 11.0309 40.924C10.9884 40.9599 10.9474 40.998 10.9081 41.0382C10.0893 41.8751 9.0008 42.336 7.84289 42.336C7.84281 42.336 7.84272 42.336 7.84264 42.336C6.68456 42.336 5.59575 41.8748 4.77665 41.0376C3.08603 39.3095 3.08586 36.4978 4.77614 34.7698C4.778 34.768 4.7801 34.7658 4.78229 34.7636C5.76136 33.7657 6.97246 33.55 7.81664 33.5451C9.00551 33.5358 10.1014 33.9886 10.9085 34.8137C11.555 35.4745 12.5893 35.5174 13.2858 34.9124L19.9995 29.0818C20.7382 28.4402 20.8282 27.3081 20.2006 26.5529C19.573 25.7979 18.4655 25.7059 17.7268 26.3472L12.1134 31.2224C10.8623 30.3981 9.39246 29.957 7.84449 29.957C7.82842 29.957 7.81226 29.957 7.79635 29.9571C5.67149 29.9696 3.71813 30.7772 2.29614 32.2307C2.2942 32.2327 2.29185 32.2352 2.2894 32.2377C-0.764971 35.3651 -0.763036 40.4494 2.29462 43.5751C3.77662 45.0899 5.74681 45.9242 7.84239 45.9243H7.84289C9.8698 45.9242 11.7796 45.1437 13.2433 43.7219ZM30.61 19.849L44.2993 8.09806C45.0416 7.46094 45.138 6.32918 44.5148 5.57051C43.8913 4.81175 42.7843 4.71308 42.0422 5.35028L28.3528 17.1013C27.6106 17.7384 27.5141 18.8701 28.1374 19.6288C28.4845 20.0514 28.9817 20.2692 29.4823 20.2692C29.8805 20.2693 30.2811 20.1314 30.61 19.849ZM42.8062 25.0442C41.5946 25.0442 40.6124 24.0402 40.6124 22.8016C40.6124 21.5631 41.5946 20.5591 42.8062 20.5591C44.0178 20.5591 45 21.5631 45 22.8016C45 24.0402 44.0178 25.0442 42.8062 25.0442ZM38.2431 22.8016C38.2431 21.5631 37.2609 20.5591 36.0493 20.5591C34.8377 20.5591 33.8555 21.5631 33.8555 22.8016C33.8555 24.0402 34.8377 25.0442 36.0493 25.0442C37.2609 25.0442 38.2431 24.0401 38.2431 22.8016ZM11.2154 22.8016C11.2154 21.5631 10.2332 20.5591 9.02159 20.5591C7.80999 20.5591 6.8278 21.5631 6.8278 22.8016C6.8278 24.0402 7.80999 25.0442 9.02159 25.0442C10.2332 25.0442 11.2154 24.0401 11.2154 22.8016ZM4.45845 22.8016C4.45845 21.5631 3.47626 20.5591 2.26466 20.5591C1.05306 20.5591 0.070871 21.5631 0.070871 22.8016C0.070871 24.0402 1.05306 25.0442 2.26466 25.0442C3.47626 25.0442 4.45845 24.0401 4.45845 22.8016Z" fill="white"/>
</svg>
