<svg width="45" height="45" viewBox="0 0 45 45" fill="none" xmlns="http://www.w3.org/2000/svg">
<path d="M5.625 2.8125C2.52246 2.8125 0 5.33496 0 8.4375V36.5625C0 39.665 2.52246 42.1875 5.625 42.1875H39.375C42.4775 42.1875 45 39.665 45 36.5625V16.875C45 13.7725 42.4775 11.25 39.375 11.25H7.03125C6.25781 11.25 5.625 10.6172 5.625 9.84375C5.625 9.07031 6.25781 8.4375 7.03125 8.4375H39.375C40.9307 8.4375 42.1875 7.18066 42.1875 5.625C42.1875 4.06934 40.9307 2.8125 39.375 2.8125H5.625ZM36.5625 29.5312C35.0068 29.5312 33.75 28.2744 33.75 26.7188C33.75 25.1631 35.0068 23.9062 36.5625 23.9062C38.1182 23.9062 39.375 25.1631 39.375 26.7188C39.375 28.2744 38.1182 29.5312 36.5625 29.5312Z" fill="white"/>
</svg>
